<svg width="770" height="600" viewBox="0 0 770 600" fill="none" xmlns="http://www.w3.org/2000/svg">
<g clip-path="url(#clip0_210_16)">
<path fill-rule="evenodd" clip-rule="evenodd" d="M182.478 157.748C139.789 157.748 104.866 192.64 104.866 235.293C104.866 277.946 139.789 312.838 182.478 312.838C191.042 312.838 198.056 319.846 198.056 328.403C198.056 336.959 191.042 343.967 182.478 343.967H141.867C121.041 343.967 104 360.994 104 381.801C104 402.608 121.041 419.635 141.867 419.635C159.878 419.635 174.616 434.36 174.616 452.356C174.616 485.189 201.503 512.052 234.364 512.052H585.106C627.796 512.052 662.718 477.16 662.718 434.507C662.718 391.854 627.796 356.962 585.106 356.962H577.598C569.034 356.962 562.02 349.963 562.02 341.398C562.02 332.841 569.025 325.833 577.598 325.833H628.133C648.959 325.833 666 308.807 666 287.999C666 267.218 649.002 250.209 628.211 250.165H587.548C569.536 250.165 554.798 235.44 554.798 217.445C554.798 184.612 527.912 157.748 495.05 157.748H182.478Z" fill="url(#paint0_linear_210_16)"/>
<path d="M529.947 90.241H233.763C227.007 90.241 221.531 95.7174 221.531 102.473V200.976C221.531 207.732 227.007 213.208 233.763 213.208H529.947C536.703 213.208 542.179 207.732 542.179 200.976V102.473C542.179 95.7174 536.703 90.241 529.947 90.241Z" fill="#3A84FF"/>
<path d="M476.027 188.304C485.913 188.304 493.927 180.29 493.927 170.404C493.927 160.518 485.913 152.504 476.027 152.504C466.141 152.504 458.127 160.518 458.127 170.404C458.127 180.29 466.141 188.304 476.027 188.304Z" fill="white"/>
<path fill-rule="evenodd" clip-rule="evenodd" d="M492.092 186.256C496.267 182.037 498.605 176.339 498.597 170.403C498.605 164.468 496.266 158.769 492.092 154.55C494.658 153.201 497.514 152.499 500.413 152.503C510.299 152.503 518.313 160.517 518.313 170.403C518.313 180.289 510.299 188.303 500.413 188.303C497.409 188.303 494.578 187.564 492.092 186.256Z" fill="white"/>
<path d="M400.534 118.259H262.002C254.265 118.259 247.993 124.531 247.993 132.268C247.993 140.005 254.265 146.277 262.002 146.277H400.534C408.271 146.277 414.543 140.005 414.543 132.268C414.543 124.531 408.271 118.259 400.534 118.259Z" fill="white"/>
<path d="M349.168 158.729H262.002C254.265 158.729 247.993 165.001 247.993 172.738C247.993 180.475 254.265 186.747 262.002 186.747H349.168C356.905 186.747 363.177 180.475 363.177 172.738C363.177 165.001 356.905 158.729 349.168 158.729Z" fill="white"/>
<path d="M529.947 404.019H233.763C227.007 404.019 221.531 409.495 221.531 416.251V514.754C221.531 521.51 227.007 526.986 233.763 526.986H529.947C536.703 526.986 542.179 521.51 542.179 514.754V416.251C542.179 409.495 536.703 404.019 529.947 404.019Z" fill="#3A84FF"/>
<path d="M476.027 502.081C485.913 502.081 493.927 494.067 493.927 484.181C493.927 474.295 485.913 466.281 476.027 466.281C466.141 466.281 458.127 474.295 458.127 484.181C458.127 494.067 466.141 502.081 476.027 502.081Z" fill="white"/>
<path fill-rule="evenodd" clip-rule="evenodd" d="M492.092 500.034C496.267 495.815 498.605 490.117 498.597 484.181C498.605 478.245 496.266 472.547 492.092 468.328C494.658 466.979 497.514 466.277 500.413 466.281C510.299 466.281 518.313 474.295 518.313 484.181C518.313 494.067 510.299 502.081 500.413 502.081C497.409 502.081 494.578 501.341 492.092 500.034Z" fill="white"/>
<path d="M400.534 432.036H262.002C254.265 432.036 247.993 438.308 247.993 446.045C247.993 453.782 254.265 460.054 262.002 460.054H400.534C408.271 460.054 414.543 453.782 414.543 446.045C414.543 438.308 408.271 432.036 400.534 432.036Z" fill="white"/>
<path d="M349.168 472.506H262.002C254.265 472.506 247.993 478.778 247.993 486.515C247.993 494.252 254.265 500.524 262.002 500.524H349.168C356.905 500.524 363.177 494.252 363.177 486.515C363.177 478.778 356.905 472.506 349.168 472.506Z" fill="white"/>
<path d="M614.16 247.13H317.976C311.22 247.13 305.744 252.606 305.744 259.362V357.865C305.744 364.621 311.22 370.097 317.976 370.097H614.16C620.916 370.097 626.392 364.621 626.392 357.865V259.362C626.392 252.606 620.916 247.13 614.16 247.13Z" fill="#3A84FF"/>
<path d="M560.239 345.193C570.125 345.193 578.139 337.179 578.139 327.293C578.139 317.407 570.125 309.393 560.239 309.393C550.353 309.393 542.339 317.407 542.339 327.293C542.339 337.179 550.353 345.193 560.239 345.193Z" fill="white"/>
<path fill-rule="evenodd" clip-rule="evenodd" d="M576.305 343.144C580.479 338.924 582.817 333.226 582.809 327.291C582.817 321.355 580.478 315.657 576.304 311.438C578.87 310.089 581.726 309.387 584.625 309.391C594.511 309.391 602.525 317.405 602.525 327.291C602.525 337.177 594.511 345.191 584.625 345.191C581.621 345.191 578.79 344.451 576.305 343.144Z" fill="white"/>
<path d="M484.747 275.147H346.215C338.478 275.147 332.206 281.419 332.206 289.156C332.206 296.893 338.478 303.165 346.215 303.165H484.747C492.484 303.165 498.756 296.893 498.756 289.156C498.756 281.419 492.484 275.147 484.747 275.147Z" fill="white"/>
<path d="M433.381 315.618H346.215C338.478 315.618 332.206 321.89 332.206 329.627C332.206 337.364 338.478 343.636 346.215 343.636H433.381C441.118 343.636 447.39 337.364 447.39 329.627C447.39 321.89 441.118 315.618 433.381 315.618Z" fill="white"/>
<path fill-rule="evenodd" clip-rule="evenodd" d="M253.87 270.926H250.26C249.387 270.926 248.684 270.216 248.684 269.351V265.741C248.684 264.868 249.395 264.165 250.26 264.165H253.87C254.735 264.165 255.446 264.875 255.446 265.741V269.351C255.446 269.558 255.406 269.763 255.327 269.954C255.248 270.146 255.132 270.32 254.985 270.466C254.839 270.612 254.665 270.728 254.474 270.807C254.282 270.886 254.077 270.927 253.87 270.926ZM241.355 270.926H237.745C236.88 270.926 236.169 270.216 236.169 269.351V265.741C236.169 264.868 236.88 264.165 237.745 264.165H241.355C242.22 264.165 242.931 264.875 242.931 265.741V269.351C242.931 270.216 242.22 270.926 241.355 270.926ZM228.831 270.926H225.222C224.356 270.926 223.646 270.216 223.646 269.351V265.741C223.646 264.868 224.356 264.165 225.222 264.165H228.831C229.697 264.165 230.407 264.875 230.407 265.741V269.351C230.407 269.558 230.367 269.763 230.288 269.954C230.209 270.146 230.093 270.32 229.946 270.466C229.8 270.612 229.626 270.728 229.435 270.807C229.243 270.886 229.038 270.927 228.831 270.926ZM216.315 270.926H212.705C211.84 270.926 211.13 270.216 211.13 269.351V265.741C211.13 264.868 211.84 264.165 212.705 264.165H216.315C217.188 264.165 217.898 264.875 217.898 265.741V269.351C217.894 269.769 217.725 270.168 217.429 270.463C217.133 270.757 216.733 270.924 216.315 270.926ZM203.799 270.926H200.189C199.316 270.926 198.606 270.216 198.606 269.351V265.741C198.606 264.868 199.316 264.165 200.189 264.165H203.799C204.664 264.165 205.374 264.875 205.374 265.741V269.351C205.374 270.216 204.664 270.926 203.799 270.926ZM240.895 257.278H237.285C236.42 257.278 235.71 256.568 235.71 255.703V252.085C235.71 251.22 236.42 250.51 237.285 250.51H240.895C241.768 250.51 242.471 251.22 242.471 252.085V255.695C242.472 255.903 242.432 256.108 242.354 256.301C242.275 256.493 242.159 256.667 242.012 256.815C241.866 256.962 241.692 257.078 241.5 257.158C241.308 257.237 241.103 257.278 240.895 257.278ZM228.38 257.278H224.77C223.904 257.278 223.194 256.568 223.194 255.703V252.085C223.194 251.22 223.904 250.51 224.77 250.51H228.38C229.245 250.51 229.955 251.22 229.955 252.085V255.695C229.956 255.903 229.917 256.108 229.838 256.301C229.759 256.493 229.644 256.667 229.497 256.814C229.351 256.962 229.177 257.078 228.985 257.158C228.793 257.237 228.588 257.278 228.38 257.278ZM215.864 257.278H212.254C211.381 257.278 210.671 256.568 210.671 255.703V252.085C210.671 251.22 211.381 250.51 212.254 250.51H215.864C216.729 250.51 217.439 251.22 217.439 252.085V255.695C217.439 256.568 216.729 257.278 215.864 257.278ZM228.831 285.586H225.222C224.356 285.586 223.646 284.876 223.646 284.011V280.401C223.646 279.528 224.356 278.825 225.222 278.825H228.831C229.697 278.825 230.407 279.535 230.407 280.401V284.011C230.407 284.218 230.367 284.423 230.288 284.614C230.209 284.806 230.093 284.98 229.946 285.126C229.8 285.272 229.626 285.388 229.435 285.467C229.243 285.546 229.038 285.587 228.831 285.586ZM216.315 285.586H212.705C211.84 285.586 211.13 284.876 211.13 284.011V280.401C211.13 279.528 211.84 278.825 212.705 278.825H216.315C217.188 278.825 217.898 279.535 217.898 280.401V284.011C217.894 284.429 217.725 284.828 217.429 285.123C217.133 285.417 216.733 285.584 216.315 285.586Z" fill="#E1E4E5"/>
<path d="M609.911 213.281C627.393 213.281 641.565 199.109 641.565 181.627C641.565 164.145 627.393 149.973 609.911 149.973C592.429 149.973 578.257 164.145 578.257 181.627C578.257 199.109 592.429 213.281 609.911 213.281Z" fill="url(#paint1_linear_210_16)"/>
</g>
<defs>
<linearGradient id="paint0_linear_210_16" x1="396.983" y1="710.696" x2="390.095" y2="-227.751" gradientUnits="userSpaceOnUse">
<stop stop-color="white"/>
<stop offset="1" stop-color="#EEEEEE"/>
</linearGradient>
<linearGradient id="paint1_linear_210_16" x1="611.261" y1="248.776" x2="609.309" y2="81.105" gradientUnits="userSpaceOnUse">
<stop stop-color="white"/>
<stop offset="1" stop-color="#EEEEEE"/>
</linearGradient>
<clipPath id="clip0_210_16">
<rect width="770" height="600" fill="white"/>
</clipPath>
</defs>
</svg>
