<svg width="770" height="600" viewBox="0 0 770 600" fill="none" xmlns="http://www.w3.org/2000/svg">
<g clip-path="url(#clip0_210_36)">
<path d="M397.932 200.335C394.747 218.207 376.198 233.926 376.198 233.926C376.198 233.926 360.991 212.181 364.176 194.309C367.373 176.433 377.503 163.293 386.828 164.962C396.149 166.619 401.117 182.462 397.932 200.335ZM357.091 231.381C369.524 244.604 371.057 268.865 371.057 268.865C371.057 268.865 344.542 268.098 332.105 254.863C319.669 241.628 315.183 225.656 322.091 219.173C328.986 212.693 344.657 218.158 357.091 231.381ZM371.949 322.947C372.509 326.049 372.73 328.222 372.788 328.774C372.792 328.838 372.805 328.886 372.799 328.913L372.802 328.925C372.802 328.925 372.79 328.928 372.787 328.916L372.7 328.927C372.412 328.914 371.553 328.886 370.255 328.808C363.309 328.359 343.89 326.195 333.594 315.651C320.914 302.661 316.135 286.755 322.908 280.153C329.678 273.539 345.45 278.707 358.13 291.696C363.806 297.517 367.346 305.575 369.507 312.725C370.525 316.08 371.34 319.494 371.949 322.947ZM410.794 264.178C394.997 273.121 371.06 268.877 371.06 268.877C371.06 268.877 378.1 243.287 393.897 234.345C409.694 225.402 426.276 224.83 430.947 233.062C435.62 241.307 426.591 255.236 410.794 264.178Z" fill="#E1E4E5"/>
<path d="M409.021 320.015C394.245 330.554 370 328.819 370 328.819C370 328.819 374.339 302.637 389.115 292.097C403.891 281.558 420.332 279.255 425.831 286.969C431.33 294.682 423.809 309.472 409.021 320.015Z" fill="#E1E4E5"/>
<path d="M379.327 226.584C379.24 226.84 372.246 251.539 374.651 314.352C374.825 318.951 375.057 323.766 375.341 328.774L375.036 328.791L372.798 328.913L372.795 328.901L372.783 328.904L372.695 328.915C372.408 328.902 371.549 328.874 370.25 328.796C369.943 323.438 369.693 318.077 369.502 312.713C367.228 250.29 374.138 226.194 374.444 225.118L379.327 226.584ZM497.198 286.661C492.179 299.611 498.06 317.259 498.06 317.259C498.06 317.259 516.643 309.085 521.662 296.134C526.675 283.177 525.273 270.561 518.513 267.947C511.761 265.326 502.217 273.71 497.198 286.661ZM511.564 323.187C498.181 326.892 487.539 342.144 487.539 342.144C487.539 342.144 505.178 352.179 518.568 348.467C531.958 344.756 541.238 336.096 539.298 329.113C537.364 322.136 524.947 319.483 511.564 323.187ZM465.466 377.148C463.867 378.954 462.859 380.287 462.602 380.625C462.574 380.665 462.547 380.691 462.54 380.711L462.533 380.718C462.533 380.718 462.539 380.724 462.546 380.718L462.599 380.76C462.792 380.865 463.365 381.188 464.245 381.653C468.964 384.12 482.52 390.421 493.441 387.618C506.893 384.165 516.337 375.664 514.532 368.656C512.735 361.642 500.37 358.754 486.918 362.207C480.895 363.758 475.379 367.619 471.125 371.435C469.126 373.224 467.236 375.132 465.466 377.148ZM463.421 323.29C470.196 335.414 487.532 342.15 487.532 342.15C487.532 342.15 493.098 322.623 486.323 310.499C479.548 298.376 468.934 291.413 462.61 294.939C456.278 298.472 456.647 311.167 463.421 323.29Z" fill="#E1E4E5"/>
<path d="M442.394 360.5C447.866 373.262 464.408 381.761 464.408 381.761C464.408 381.761 471.974 362.92 466.502 350.158C461.029 337.396 451.195 329.358 444.535 332.216C437.875 335.074 436.915 347.731 442.394 360.5Z" fill="#E1E4E5"/>
<path d="M498.932 311.215C498.887 311.416 493.645 330.344 467.114 370.455C465.082 373.526 463.021 376.577 460.932 379.609L461.125 379.742L462.54 380.711L462.547 380.704L462.553 380.711L462.606 380.753C462.799 380.858 463.372 381.182 464.252 381.647C466.582 378.266 468.876 374.86 471.132 371.429C497.422 331.522 502.479 313.021 502.707 312.197L498.932 311.215Z" fill="#E1E4E5"/>
<path d="M289.286 258.966C289.286 258.966 281.055 229.504 292.733 215.926C305.275 201.319 315.082 215.345 305.373 235.776C298.715 249.802 289.286 258.966 289.286 258.966ZM284.897 291.837C284.897 291.837 257.967 277.252 256.395 259.465C254.693 240.355 271.634 243.09 279.528 264.237C284.917 278.737 284.897 291.837 284.897 291.837ZM285.278 311.285C285.278 311.285 314.02 300.437 318.107 283.042C322.508 264.335 305.325 264.785 294.524 284.663C287.132 298.296 285.278 311.285 285.278 311.285ZM286.952 325.32C286.952 325.32 256.319 323.393 247.397 307.954C237.8 291.343 254.366 286.738 270.433 302.577C281.443 313.419 286.952 325.32 286.952 325.32Z" fill="#3A84FF"/>
<path d="M294.909 232.514C289.267 251.165 285.076 270.299 283.965 289.764C282.877 308.926 284.859 328.091 288.954 346.802C290.028 351.71 291.23 356.59 292.558 361.435L294.4 360.44C290.93 347.563 288.201 334.472 286.788 321.191C284.81 302.729 285.577 284.094 288.833 265.818C290.81 254.757 293.605 243.856 296.855 233.105C297.236 231.839 295.282 231.274 294.909 232.514Z" fill="#274575"/>
<mask id="mask0_210_36" style="mask-type:alpha" maskUnits="userSpaceOnUse" x="230" y="214" width="298" height="298">
<path d="M379.112 511.357C460.959 511.357 527.309 445.007 527.309 363.16C527.309 281.313 460.959 214.963 379.112 214.963C297.265 214.963 230.915 281.313 230.915 363.16C230.915 445.007 297.265 511.357 379.112 511.357Z" fill="#C4C4C4"/>
</mask>
<g mask="url(#mask0_210_36)">
<path d="M408.334 621.983C490.181 621.983 556.531 555.633 556.531 473.786C556.531 391.939 490.181 325.589 408.334 325.589C326.487 325.589 260.137 391.939 260.137 473.786C260.137 555.633 326.487 621.983 408.334 621.983Z" fill="#3A84FF"/>
<path d="M345.314 522.762C403.783 522.762 451.182 477.338 451.182 421.305C451.182 365.272 403.783 319.848 345.314 319.848C286.845 319.848 239.446 365.272 239.446 421.305C239.446 477.338 286.845 522.762 345.314 522.762Z" fill="#E1E4E5"/>
<path d="M361.37 653.293C443.217 653.293 509.567 586.943 509.567 505.096C509.567 423.249 443.217 356.899 361.37 356.899C279.523 356.899 213.173 423.249 213.173 505.096C213.173 586.943 279.523 653.293 361.37 653.293Z" fill="#274575"/>
</g>
<path d="M214.035 322.996C214.035 322.996 189.827 287.898 199.062 264.707C208.969 239.769 228.255 253.807 224.722 285.138C222.307 306.642 214.035 322.996 214.035 322.996ZM223.154 368.309C223.154 368.309 181.048 361.298 170.91 338.567C160.003 314.152 183.571 310.075 203.563 334.367C217.241 351.034 223.154 368.309 223.154 368.309ZM232.476 393.768C232.476 393.768 265.438 366.439 262.938 341.66C260.255 315.009 237.813 323.392 232.591 354.489C229.03 375.808 232.476 393.768 232.476 393.768ZM241.045 411.507C241.045 411.507 199.799 422.857 181.039 406.555C160.858 389.013 180.604 375.432 208.962 389.023C228.389 398.32 241.045 411.507 241.045 411.507Z" fill="#3A84FF"/>
<path d="M209.452 285.584C210.472 312.722 213.625 339.841 220.986 366C228.241 391.747 239.544 416.109 253.425 438.912C257.055 444.9 260.881 450.789 264.81 456.564L266.786 454.418C256.375 439.019 246.842 423.004 238.957 406.139C227.979 382.704 220.54 357.795 216.545 332.232C214.135 316.757 212.876 301.123 212.285 285.479C212.213 283.638 209.382 283.779 209.452 285.584Z" fill="#274575"/>
<path d="M471.093 256.794C471.093 256.794 483.729 216.073 467.996 196.692C451.1 175.845 436.881 194.997 449.599 223.848C458.319 243.652 471.093 256.794 471.093 256.794ZM475.908 302.764C475.908 302.764 514.005 283.51 516.9 258.79C520.027 232.234 496.316 235.373 484.481 264.523C476.398 284.511 475.908 302.764 475.908 302.764ZM474.605 329.845C474.605 329.845 434.99 313.593 429.985 289.196C424.595 262.959 448.516 264.266 462.777 292.389C472.536 311.674 474.605 329.845 474.605 329.845ZM471.718 349.332C471.718 349.332 514.472 347.86 527.514 326.704C541.544 303.941 518.645 296.869 495.633 318.301C479.864 332.969 471.718 349.332 471.718 349.332Z" fill="#3A84FF"/>
<path d="M464.307 219.717C471.429 245.925 476.51 272.749 477.288 299.913C478.044 326.652 474.523 353.276 468.077 379.182C466.398 385.98 464.504 392.742 462.477 399.427L459.95 397.968C465.294 380.164 469.614 362.034 472.109 343.586C475.596 317.942 475.266 291.949 471.453 266.357C469.136 250.868 465.674 235.571 461.571 220.462C461.091 218.684 463.836 217.974 464.307 219.717Z" fill="#274575"/>
<path d="M287.951 167.623C278.904 169.416 268.598 159.886 268.598 159.886C268.598 159.886 272.968 147.454 282.018 145.669C291.065 143.876 301.367 153.398 301.367 153.398C301.367 153.398 296.998 165.83 287.951 167.623Z" fill="url(#paint0_linear_210_36)"/>
<path d="M583.328 453.468C594.14 460.915 610.658 455.709 610.658 455.709C610.658 455.709 609.635 438.431 598.816 430.991C588.003 423.544 571.493 428.742 571.493 428.742C571.493 428.742 572.516 446.021 583.328 453.468Z" fill="url(#paint1_linear_210_36)"/>
<path d="M593.24 248.807C581.997 260.25 560.974 257.837 560.974 257.837C560.974 257.837 558.192 236.872 569.445 225.436C580.688 213.994 601.701 216.399 601.701 216.399C601.701 216.399 604.483 237.364 593.24 248.807Z" fill="url(#paint2_linear_210_36)"/>
<path d="M225.466 476.063C217.942 476.063 211.842 482.163 211.842 489.687C211.842 497.211 217.942 503.311 225.466 503.311C232.99 503.311 239.09 497.211 239.09 489.687C239.09 482.163 232.99 476.063 225.466 476.063Z" fill="#3A84FF"/>
<path d="M108.518 298.402C102.868 298.402 98.288 293.822 98.288 288.172C98.288 282.522 102.868 277.942 108.518 277.942C114.168 277.942 118.748 282.522 118.748 288.172C118.748 293.822 114.168 298.402 108.518 298.402Z" fill="#3A84FF"/>
<path d="M539.36 156.373C536.315 156.373 533.846 153.904 533.846 150.859C533.846 147.814 536.315 145.345 539.36 145.345C542.405 145.345 544.874 147.814 544.874 150.859C544.874 153.904 542.405 156.373 539.36 156.373Z" fill="#3A84FF"/>
<path d="M523.172 491.057C518.655 491.057 514.993 487.7 514.993 483.56C514.993 479.42 518.655 476.063 523.172 476.063C527.689 476.063 531.351 479.42 531.351 483.56C531.351 487.7 527.689 491.057 523.172 491.057Z" fill="#E1E4E5"/>
<path d="M108.9 449.256C102.88 449.256 98 444.376 98 438.356C98 432.336 102.88 427.456 108.9 427.456C114.92 427.456 119.8 432.336 119.8 438.356C119.8 444.376 114.92 449.256 108.9 449.256Z" fill="#E1E4E5"/>
<path d="M155.78 266.611C152.185 266.611 149.27 263.696 149.27 260.101C149.27 256.506 152.185 253.591 155.78 253.591C159.375 253.591 162.29 256.506 162.29 260.101C162.29 263.696 159.375 266.611 155.78 266.611Z" fill="#E1E4E5"/>
<path d="M448.931 102.336C445.277 102.336 442.314 99.1268 442.314 95.168C442.314 91.2092 445.277 88 448.931 88C452.585 88 455.548 91.2092 455.548 95.168C455.548 99.1268 452.585 102.336 448.931 102.336Z" fill="#E1E4E5"/>
<path d="M240.607 210.627C241.906 215.476 239.029 220.459 234.181 221.758C229.332 223.057 224.349 220.18 223.05 215.332C221.751 210.484 224.628 205.5 229.476 204.201C234.324 202.902 239.308 205.779 240.607 210.627Z" fill="#E1E4E5"/>
<path d="M168.822 156.373C163.95 156.373 160 152.423 160 147.551C160 142.679 163.95 138.729 168.822 138.729C173.694 138.729 177.644 142.679 177.644 147.551C177.644 152.423 173.694 156.373 168.822 156.373Z" fill="#E1E4E5"/>
<path d="M662.439 410.358C657.303 410.358 653.139 407.027 653.139 402.918C653.139 398.809 657.303 395.478 662.439 395.478C667.575 395.478 671.739 398.809 671.739 402.918C671.739 407.027 667.575 410.358 662.439 410.358Z" fill="#E1E4E5"/>
<path d="M616.544 325.488C619.247 335.577 613.26 345.948 603.17 348.651C593.081 351.355 582.71 345.367 580.007 335.278C577.303 325.188 583.291 314.818 593.38 312.114C603.47 309.411 613.84 315.398 616.544 325.488Z" fill="#E1E4E5"/>
<path d="M579.014 145.608H579.191C580.235 160.736 591.235 160.969 591.235 160.969C591.235 160.969 579.105 161.211 579.105 178.692C579.105 161.211 566.974 160.969 566.974 160.969C566.974 160.969 577.97 160.736 579.014 145.608ZM331.389 88H331.574C332.665 103.633 344.166 103.873 344.166 103.873C344.166 103.873 331.484 104.123 331.484 122.186C331.484 104.123 318.802 103.873 318.802 103.873C318.802 103.873 330.298 103.633 331.389 88Z" fill="#E1E4E5"/>
</g>
<defs>
<linearGradient id="paint0_linear_210_36" x1="253.679" y1="171.223" x2="331.759" y2="134.652" gradientUnits="userSpaceOnUse">
<stop stop-color="white"/>
<stop offset="1" stop-color="#EEEEEE"/>
</linearGradient>
<linearGradient id="paint1_linear_210_36" x1="625.445" y1="477.903" x2="540.335" y2="388.157" gradientUnits="userSpaceOnUse">
<stop stop-color="white"/>
<stop offset="1" stop-color="#EEEEEE"/>
</linearGradient>
<linearGradient id="paint2_linear_210_36" x1="548.384" y1="287.893" x2="629.662" y2="160.482" gradientUnits="userSpaceOnUse">
<stop stop-color="white"/>
<stop offset="1" stop-color="#EEEEEE"/>
</linearGradient>
<clipPath id="clip0_210_36">
<rect width="770" height="600" fill="white"/>
</clipPath>
</defs>
</svg>
