<svg width="44" height="44" viewBox="0 0 44 44" fill="none" xmlns="http://www.w3.org/2000/svg">
<path d="M0 6C0 2.68629 2.68629 0 6 0H38C41.3137 0 44 2.68629 44 6V38C44 41.3137 41.3137 44 38 44H6C2.68629 44 0 41.3137 0 38V6Z" fill="#2563EB"/>
<path d="M25.3409 16.7045C25.2652 15.8712 24.928 15.2235 24.3295 14.7614C23.7386 14.2917 22.8939 14.0568 21.7955 14.0568C21.0682 14.0568 20.4621 14.1515 19.9773 14.3409C19.4924 14.5303 19.1288 14.7917 18.8864 15.125C18.6439 15.4508 18.5189 15.8258 18.5114 16.25C18.4962 16.5985 18.5644 16.9053 18.7159 17.1705C18.875 17.4356 19.1023 17.6705 19.3977 17.875C19.7008 18.072 20.0644 18.2462 20.4886 18.3977C20.9129 18.5492 21.3902 18.6818 21.9205 18.7955L23.9205 19.25C25.072 19.5 26.0871 19.8333 26.9659 20.25C27.8523 20.6667 28.5947 21.1629 29.1932 21.7386C29.7992 22.3144 30.2576 22.9773 30.5682 23.7273C30.8788 24.4773 31.0379 25.3182 31.0455 26.25C31.0379 27.7197 30.6667 28.9811 29.9318 30.0341C29.197 31.0871 28.1402 31.8939 26.7614 32.4545C25.3902 33.0152 23.7348 33.2955 21.7955 33.2955C19.8485 33.2955 18.1515 33.0038 16.7045 32.4205C15.2576 31.8371 14.1326 30.9508 13.3295 29.7614C12.5265 28.572 12.1136 27.0682 12.0909 25.25H17.4773C17.5227 26 17.7235 26.625 18.0795 27.125C18.4356 27.625 18.9242 28.0038 19.5455 28.2614C20.1742 28.5189 20.9015 28.6477 21.7273 28.6477C22.4848 28.6477 23.1288 28.5455 23.6591 28.3409C24.197 28.1364 24.6098 27.8523 24.8977 27.4886C25.1856 27.125 25.3333 26.7083 25.3409 26.2386C25.3333 25.7992 25.197 25.4242 24.9318 25.1136C24.6667 24.7955 24.2576 24.5227 23.7045 24.2955C23.1591 24.0606 22.4621 23.8447 21.6136 23.6477L19.1818 23.0795C17.1667 22.6174 15.5795 21.8712 14.4205 20.8409C13.2614 19.803 12.6856 18.4015 12.6932 16.6364C12.6856 15.197 13.072 13.9356 13.8523 12.8523C14.6326 11.7689 15.7121 10.9242 17.0909 10.3182C18.4697 9.71212 20.0417 9.40909 21.8068 9.40909C23.6098 9.40909 25.1742 9.71591 26.5 10.3295C27.8333 10.9356 28.8674 11.7879 29.6023 12.8864C30.3371 13.9848 30.7121 15.2576 30.7273 16.7045H25.3409Z" fill="white"/>
</svg>
