<svg fill="none" height="44" viewBox="0 0 44 44" width="44" xmlns="http://www.w3.org/2000/svg"><path d="m0 6c0-3.31371 2.68629-6 6-6h32c3.3137 0 6 2.68629 6 6v32c0 3.3137-2.6863 6-6 6h-32c-3.31371 0-6-2.6863-6-6z" fill="#4f46e5"/><path d="m25.3409 16.7045c-.0757-.8333-.4129-1.481-1.0114-1.9431-.5909-.4697-1.4356-.7046-2.534-.7046-.7273 0-1.3334.0947-1.8182.2841-.4849.1894-.8485.4508-1.0909.7841-.2425.3258-.3675.7008-.375 1.125-.0152.3485.053.6553.2045.9205.1591.2651.3864.5.6818.7045.3031.197.6667.3712 1.0909.5227.4243.1515.9016.2841 1.4319.3978l2 .4545c1.1515.25 2.1666.5833 3.0454 1 .8864.4167 1.6288.9129 2.2273 1.4886.606.5758 1.0644 1.2387 1.375 1.9887s.4697 1.5909.4773 2.5227c-.0076 1.4697-.3788 2.7311-1.1137 3.7841-.7348 1.053-1.7916 1.8598-3.1704 2.4204-1.3712.5607-3.0266.841-4.9659.841-1.947 0-3.644-.2917-5.091-.875-1.4469-.5834-2.5719-1.4697-3.375-2.6591-.803-1.1894-1.2159-2.6932-1.2386-4.5114h5.3864c.0454.75.2462 1.375.6022 1.875.3561.5.8447.8788 1.466 1.1364.6287.2575 1.356.3863 2.1818.3863.7575 0 1.4015-.1022 1.9318-.3068.5379-.2045.9507-.4886 1.2386-.8523.2879-.3636.4356-.7803.4432-1.25-.0076-.4394-.1439-.8144-.4091-1.125-.2651-.3181-.6742-.5909-1.2273-.8181-.5454-.2349-1.2424-.4508-2.0909-.6478l-2.4318-.5682c-2.0151-.4621-3.6023-1.2083-4.7613-2.2386-1.1591-1.0379-1.7349-2.4394-1.7273-4.2045-.0076-1.4394.3788-2.7008 1.1591-3.7841.7803-1.0834 1.8598-1.9281 3.2386-2.5341 1.3788-.60608 2.9508-.90911 4.7159-.90911 1.803 0 3.3674.30682 4.6932.92041 1.3333.6061 2.3674 1.4584 3.1023 2.5569.7348 1.0984 1.1098 2.3712 1.125 3.8181z" fill="#fff"/></svg>